<svg width="24" height="15" viewBox="0 0 24 15" fill="none" xmlns="http://www.w3.org/2000/svg">
  <g clip-path="url(#clip0_2124_2551)">
    <path d="M2.90156 5.37495L11.3016 13.8C11.4016 13.9 11.5099 13.9706 11.6266 14.012C11.7432 14.054 11.8682 14.075 12.0016 14.075C12.1349 14.075 12.2599 14.054 12.3766 14.012C12.4932 13.9706 12.6016 13.9 12.7016 13.8L21.1266 5.37495C21.3599 5.14162 21.4766 4.84995 21.4766 4.49995C21.4766 4.14995 21.3516 3.84995 21.1016 3.59995C20.8516 3.34995 20.5599 3.22495 20.2266 3.22495C19.8932 3.22495 19.6016 3.34995 19.3516 3.59995L12.0016 10.95L4.65156 3.59995C4.41823 3.36662 4.1309 3.24995 3.78956 3.24995C3.44756 3.24995 3.15156 3.37495 2.90156 3.62495C2.65156 3.87495 2.52656 4.16662 2.52656 4.49995C2.52656 4.83328 2.65156 5.12495 2.90156 5.37495Z" fill="#101010" />
  </g>
  <defs>
    <clipPath id="clip0_2124_2551">
      <rect width="14" height="24" fill="white" transform="matrix(1.19249e-08 -1 -1 -1.19249e-08 24 14.5)" />
    </clipPath>
  </defs>
</svg>