<svg width="24" height="15" viewBox="0 0 24 15" fill="none" xmlns="http://www.w3.org/2000/svg">
  <g clip-path="url(#clip0_2124_2542)">
    <path d="M21.1023 9.62505L12.7023 1.20005C12.6023 1.10005 12.494 1.02938 12.3773 0.988049C12.2607 0.946049 12.1357 0.925049 12.0023 0.925049C11.869 0.925049 11.744 0.946049 11.6273 0.988049C11.5107 1.02938 11.4023 1.10005 11.3023 1.20005L2.87734 9.62505C2.64401 9.85838 2.52734 10.15 2.52734 10.5C2.52734 10.85 2.65234 11.15 2.90234 11.4C3.15234 11.65 3.44401 11.775 3.77734 11.775C4.11068 11.775 4.40234 11.65 4.65234 11.4L12.0023 4.05005L19.3523 11.4C19.5857 11.6334 19.873 11.75 20.2143 11.75C20.5563 11.75 20.8523 11.625 21.1023 11.375C21.3523 11.125 21.4773 10.8334 21.4773 10.5C21.4773 10.1667 21.3523 9.87505 21.1023 9.62505Z" fill="white" />
  </g>
  <defs>
    <clipPath id="clip0_2124_2542">
      <rect width="14" height="24" fill="white" transform="matrix(1.19249e-08 1 1 -1.19249e-08 0 0.5)" />
    </clipPath>
  </defs>
</svg>